<?xml version="1.0" encoding="UTF-8"?>
<svg xmlns="http://www.w3.org/2000/svg" xmlns:xlink="http://www.w3.org/1999/xlink" width="80pt" height="80pt" viewBox="0 0 80 80" version="1.1">
<g id="surface1933835">
<path style=" stroke:none;fill-rule:nonzero;fill:rgb(90.196079%,90.196079%,90.196079%);fill-opacity:1;" d="M 54.410156 9 C 53.859375 8.96875 53.390625 9.398438 53.371094 9.949219 C 53.339844 10.5 53.769531 10.96875 54.320312 11 L 54.371094 11 C 54.898438 11 55.339844 10.578125 55.359375 10.039062 C 55.390625 9.488281 54.960938 9.019531 54.410156 9 Z M 26.882812 9.097656 C 26.332031 9.039062 25.828125 9.429688 25.769531 9.980469 C 25.699219 10.53125 26.101562 11.019531 26.652344 11.089844 L 26.761719 11.089844 C 27.261719 11.089844 27.691406 10.722656 27.75 10.210938 C 27.820312 9.660156 27.421875 9.160156 26.882812 9.097656 Z M 50.492188 9.742188 C 50.363281 9.738281 50.230469 9.761719 50.097656 9.808594 C 49.589844 10.011719 49.328125 10.589844 49.53125 11.109375 C 49.6875 11.5 50.070312 11.75 50.46875 11.75 C 50.589844 11.75 50.710938 11.730469 50.832031 11.679688 C 51.339844 11.480469 51.601562 10.902344 51.402344 10.390625 C 51.25 10 50.886719 9.753906 50.492188 9.742188 Z M 22.753906 9.859375 C 22.625 9.878906 22.5 9.925781 22.382812 10 C 21.910156 10.289062 21.769531 10.910156 22.070312 11.382812 C 22.25 11.679688 22.582031 11.847656 22.910156 11.847656 C 23.089844 11.847656 23.28125 11.800781 23.4375 11.6875 C 23.910156 11.398438 24.050781 10.78125 23.757812 10.308594 C 23.542969 9.964844 23.140625 9.792969 22.753906 9.855469 Z M 30.605469 10.273438 C 30.21875 10.257812 29.839844 10.472656 29.660156 10.839844 C 29.421875 11.339844 29.640625 11.941406 30.140625 12.179688 C 30.269531 12.238281 30.421875 12.269531 30.5625 12.269531 C 30.941406 12.269531 31.300781 12.058594 31.472656 11.699219 C 31.699219 11.199219 31.492188 10.609375 30.992188 10.367188 C 30.867188 10.308594 30.734375 10.277344 30.605469 10.273438 Z M 57.957031 10.542969 C 57.699219 10.539062 57.445312 10.636719 57.25 10.828125 C 56.851562 11.21875 56.851562 11.851562 57.238281 12.238281 C 57.429688 12.441406 57.6875 12.539062 57.949219 12.539062 C 58.199219 12.539062 58.460938 12.449219 58.652344 12.25 C 59.039062 11.871094 59.050781 11.230469 58.660156 10.839844 C 58.464844 10.644531 58.210938 10.546875 57.953125 10.542969 Z M 46.753906 11.605469 C 46.625 11.628906 46.5 11.675781 46.382812 11.75 C 45.921875 12.050781 45.78125 12.671875 46.082031 13.140625 C 46.269531 13.429688 46.601562 13.589844 46.929688 13.589844 C 47.109375 13.589844 47.300781 13.539062 47.46875 13.429688 C 47.929688 13.140625 48.058594 12.519531 47.769531 12.050781 C 47.542969 11.707031 47.140625 11.539062 46.753906 11.605469 Z M 34.015625 12.308594 C 33.570312 12.292969 33.171875 12.574219 33.035156 12.996094 C 32.898438 13.417969 33.054688 13.878906 33.417969 14.132812 L 33.421875 14.132812 C 35.066406 15.289062 36.792969 16.785156 38.535156 18.519531 C 36.527344 20.660156 34.523438 23.117188 32.582031 25.832031 C 28.746094 26.167969 25.175781 26.773438 21.945312 27.589844 C 21.335938 25.1875 20.925781 22.929688 20.78125 20.929688 C 20.75 20.402344 20.316406 19.992188 19.792969 19.988281 C 19.511719 19.984375 19.238281 20.097656 19.046875 20.304688 C 18.855469 20.511719 18.757812 20.789062 18.78125 21.074219 C 18.941406 23.222656 19.371094 25.597656 20.003906 28.105469 C 18.03125 28.679688 16.210938 29.335938 14.585938 30.074219 C 14.5 30.109375 14.414062 30.164062 14.339844 30.226562 C 14.28125 30.242188 14.21875 30.242188 14.160156 30.269531 C 13.660156 30.5 13.449219 31.101562 13.679688 31.601562 C 13.851562 31.960938 14.210938 32.171875 14.589844 32.171875 C 14.730469 32.171875 14.878906 32.140625 15.007812 32.082031 C 15.066406 32.054688 15.101562 32.007812 15.148438 31.976562 C 15.242188 31.960938 15.328125 31.933594 15.410156 31.894531 C 16.925781 31.210938 18.640625 30.589844 20.515625 30.042969 C 21.445312 33.203125 22.714844 36.5625 24.3125 40.007812 C 22.90625 43.039062 21.738281 46.011719 20.847656 48.835938 C 18.847656 48.265625 17.011719 47.617188 15.414062 46.894531 L 15.410156 46.894531 C 15.410156 46.890625 15.410156 46.890625 15.410156 46.890625 C 15.410156 46.890625 15.40625 46.890625 15.402344 46.890625 C 15.285156 46.835938 15.15625 46.804688 15.027344 46.800781 C 14.621094 46.785156 14.246094 47.015625 14.082031 47.386719 C 13.914062 47.753906 13.984375 48.1875 14.261719 48.484375 L 14.261719 48.488281 C 14.351562 48.578125 14.453125 48.652344 14.570312 48.707031 C 14.578125 48.710938 14.582031 48.71875 14.589844 48.722656 C 14.605469 48.730469 14.625 48.730469 14.640625 48.738281 C 16.328125 49.496094 18.230469 50.171875 20.285156 50.761719 C 20 51.789062 19.738281 52.808594 19.527344 53.789062 C 19.445312 54.140625 19.558594 54.511719 19.824219 54.757812 C 20.09375 55.003906 20.472656 55.085938 20.816406 54.972656 C 21.160156 54.855469 21.417969 54.566406 21.484375 54.210938 C 21.6875 53.261719 21.941406 52.277344 22.21875 51.277344 C 25.109375 51.988281 28.28125 52.519531 31.652344 52.859375 C 33.878906 56.101562 36.207031 58.992188 38.542969 61.480469 C 37.539062 62.480469 36.539062 63.417969 35.558594 64.230469 C 35.277344 64.457031 35.144531 64.816406 35.203125 65.171875 C 35.261719 65.527344 35.507812 65.824219 35.84375 65.945312 C 36.183594 66.070312 36.5625 66.003906 36.835938 65.769531 C 37.859375 64.917969 38.898438 63.953125 39.933594 62.921875 C 41.40625 64.382812 42.875 65.683594 44.3125 66.78125 C 44.320312 66.785156 44.324219 66.796875 44.328125 66.800781 L 44.328125 66.796875 C 44.613281 67.023438 44.996094 67.078125 45.332031 66.941406 C 45.667969 66.800781 45.902344 66.496094 45.949219 66.132812 C 45.992188 65.773438 45.835938 65.417969 45.542969 65.207031 C 44.175781 64.164062 42.761719 62.90625 41.332031 61.488281 C 43.671875 59 46 56.113281 48.230469 52.871094 C 51.621094 52.535156 54.796875 51.992188 57.699219 51.285156 C 58.175781 52.988281 58.546875 54.625 58.800781 56.164062 C 58.890625 56.707031 59.40625 57.078125 59.949219 56.988281 C 60.496094 56.898438 60.863281 56.382812 60.773438 55.839844 C 60.511719 54.234375 60.128906 52.539062 59.640625 50.78125 C 61.339844 50.296875 62.933594 49.761719 64.382812 49.160156 C 64.71875 49.027344 64.957031 48.722656 65.003906 48.367188 C 65.050781 48.007812 64.90625 47.652344 64.617188 47.433594 C 64.332031 47.214844 63.949219 47.167969 63.617188 47.3125 C 62.238281 47.882812 60.703125 48.398438 59.058594 48.867188 C 58.164062 46.023438 57.003906 43.042969 55.582031 39.992188 C 57.1875 36.542969 58.453125 33.1875 59.382812 30.023438 C 60.527344 30.355469 61.628906 30.703125 62.644531 31.089844 C 63.160156 31.289062 63.738281 31.035156 63.9375 30.519531 C 64.136719 30.003906 63.882812 29.425781 63.367188 29.226562 C 63.363281 29.222656 63.363281 29.222656 63.359375 29.222656 C 63.359375 29.21875 63.355469 29.222656 63.355469 29.222656 C 62.28125 28.8125 61.117188 28.445312 59.917969 28.097656 C 60.359375 26.371094 60.703125 24.707031 60.917969 23.140625 L 60.917969 23.136719 C 60.964844 22.851562 60.882812 22.5625 60.695312 22.34375 C 60.511719 22.121094 60.242188 21.992188 59.953125 21.988281 C 59.445312 21.976562 59.007812 22.351562 58.941406 22.855469 C 58.941406 22.855469 58.941406 22.859375 58.9375 22.859375 L 58.9375 22.863281 C 58.738281 24.335938 58.410156 25.917969 57.988281 27.566406 C 54.753906 26.757812 51.15625 26.164062 47.316406 25.832031 C 45.367188 23.113281 43.363281 20.640625 41.34375 18.5 C 42.789062 17.058594 44.21875 15.789062 45.601562 14.742188 C 45.949219 14.484375 46.09375 14.035156 45.960938 13.625 C 45.828125 13.21875 45.449219 12.9375 45.015625 12.9375 C 44.792969 12.933594 44.574219 13.007812 44.394531 13.148438 C 42.929688 14.257812 41.433594 15.585938 39.929688 17.078125 C 38.125 15.289062 36.324219 13.726562 34.574219 12.496094 C 34.414062 12.378906 34.21875 12.3125 34.015625 12.308594 Z M 20.480469 12.957031 C 20.09375 12.972656 19.730469 13.210938 19.582031 13.597656 C 19.378906 14.109375 19.640625 14.691406 20.160156 14.890625 C 20.28125 14.941406 20.398438 14.960938 20.511719 14.960938 C 20.917969 14.960938 21.300781 14.710938 21.449219 14.308594 C 21.648438 13.800781 21.390625 13.21875 20.867188 13.019531 C 20.742188 12.972656 20.609375 12.953125 20.480469 12.957031 Z M 59.921875 14.058594 C 59.796875 14.039062 59.660156 14.046875 59.53125 14.082031 C 58.988281 14.21875 58.671875 14.757812 58.800781 15.289062 C 58.921875 15.75 59.328125 16.050781 59.769531 16.050781 C 59.847656 16.050781 59.941406 16.039062 60.019531 16.019531 C 60.550781 15.878906 60.878906 15.339844 60.738281 14.800781 C 60.636719 14.402344 60.304688 14.117188 59.921875 14.058594 Z M 19.8125 16.867188 C 19.261719 16.839844 18.78125 17.25 18.75 17.808594 C 18.710938 18.359375 19.128906 18.828125 19.6875 18.859375 C 19.710938 18.871094 19.730469 18.867188 19.75 18.867188 C 20.269531 18.867188 20.710938 18.460938 20.75 17.929688 C 20.78125 17.378906 20.359375 16.898438 19.8125 16.867188 Z M 60.210938 18.011719 C 59.660156 18.011719 59.21875 18.460938 59.21875 19.019531 C 59.21875 19.570312 59.671875 20.011719 60.21875 20.011719 C 60.769531 20.011719 61.21875 19.558594 61.21875 19.011719 C 61.21875 18.460938 60.769531 18.011719 60.210938 18.011719 Z M 39.941406 19.945312 C 41.535156 21.640625 43.128906 23.5625 44.695312 25.648438 C 43.15625 25.5625 41.597656 25.507812 40 25.507812 C 38.359375 25.507812 36.761719 25.566406 35.1875 25.65625 C 36.753906 23.5625 38.351562 21.648438 39.945312 19.945312 Z M 40 27.507812 C 42.132812 27.507812 44.214844 27.589844 46.234375 27.746094 C 47.625 29.726562 48.980469 31.847656 50.269531 34.085938 C 51.410156 36.058594 52.449219 38.035156 53.382812 39.980469 C 52.441406 41.945312 51.402344 43.933594 50.253906 45.929688 C 50.246094 45.9375 50.242188 45.945312 50.238281 45.953125 C 50.234375 45.960938 50.226562 45.972656 50.222656 45.980469 C 49.214844 47.722656 48.167969 49.382812 47.097656 50.972656 C 44.8125 51.175781 42.4375 51.285156 40 51.285156 C 37.527344 51.285156 35.117188 51.171875 32.804688 50.96875 C 31.730469 49.371094 30.675781 47.714844 29.667969 45.964844 C 28.507812 43.957031 27.476562 41.957031 26.535156 39.980469 C 27.472656 38.019531 28.507812 36.03125 29.660156 34.039062 C 29.660156 34.035156 29.664062 34.03125 29.664062 34.03125 C 29.667969 34.023438 29.671875 34.019531 29.675781 34.015625 C 30.949219 31.808594 32.285156 29.722656 33.65625 27.765625 C 35.710938 27.605469 37.824219 27.507812 40 27.507812 Z M 48.808594 27.988281 C 51.90625 28.332031 54.8125 28.839844 57.449219 29.496094 C 56.6875 32.082031 55.683594 34.816406 54.441406 37.640625 C 53.683594 36.128906 52.882812 34.609375 52.003906 33.085938 C 50.976562 31.304688 49.898438 29.621094 48.808594 27.988281 Z M 31.070312 28.011719 C 30 29.613281 28.949219 31.269531 27.941406 33.015625 C 27.9375 33.019531 27.933594 33.03125 27.929688 33.039062 C 27.925781 33.039062 27.925781 33.042969 27.925781 33.042969 C 27.039062 34.578125 26.226562 36.105469 25.464844 37.628906 C 24.234375 34.824219 23.21875 32.09375 22.464844 29.527344 C 25.089844 28.867188 27.984375 28.355469 31.074219 28.011719 Z M 66.738281 30.792969 C 66.347656 30.757812 65.953125 30.953125 65.757812 31.320312 C 65.5 31.808594 65.691406 32.410156 66.179688 32.667969 C 66.328125 32.75 66.492188 32.789062 66.648438 32.789062 C 67 32.789062 67.347656 32.601562 67.527344 32.257812 C 67.789062 31.78125 67.597656 31.171875 67.117188 30.910156 C 66.996094 30.84375 66.867188 30.808594 66.738281 30.792969 Z M 11.292969 32.171875 C 11.039062 32.128906 10.769531 32.179688 10.539062 32.339844 C 10.089844 32.660156 9.980469 33.28125 10.300781 33.730469 C 10.5 34.011719 10.808594 34.160156 11.117188 34.160156 C 11.320312 34.160156 11.519531 34.101562 11.6875 33.96875 L 11.699219 33.980469 C 12.148438 33.660156 12.257812 33.03125 11.9375 32.582031 C 11.78125 32.355469 11.546875 32.214844 11.292969 32.171875 Z M 69.890625 33.003906 C 69.636719 33.023438 69.390625 33.140625 69.210938 33.347656 C 68.851562 33.769531 68.910156 34.398438 69.328125 34.761719 C 69.519531 34.917969 69.75 35 69.96875 35 C 70.261719 35 70.539062 34.878906 70.738281 34.640625 C 71.089844 34.21875 71.039062 33.589844 70.617188 33.238281 C 70.410156 33.058594 70.148438 32.980469 69.890625 33.003906 Z M 40 34.003906 C 36.6875 34.003906 34 36.691406 34 40.003906 C 34 43.316406 36.6875 46.003906 40 46.003906 C 43.3125 46.003906 46 43.316406 46 40.003906 C 46 36.691406 43.3125 34.003906 40 34.003906 Z M 8.070312 34.910156 C 7.816406 34.949219 7.578125 35.085938 7.417969 35.3125 C 7.101562 35.761719 7.199219 36.390625 7.652344 36.710938 C 7.820312 36.832031 8.03125 36.902344 8.230469 36.902344 C 8.539062 36.902344 8.847656 36.75 9.039062 36.480469 C 9.367188 36.03125 9.261719 35.410156 8.820312 35.089844 C 8.59375 34.925781 8.324219 34.867188 8.070312 34.910156 Z M 72.4375 36.085938 C 72.304688 36.089844 72.175781 36.121094 72.050781 36.179688 C 71.550781 36.410156 71.332031 37 71.5625 37.5 C 71.730469 37.871094 72.089844 38.082031 72.472656 38.082031 C 72.609375 38.082031 72.75 38.050781 72.890625 37.992188 C 73.390625 37.761719 73.609375 37.160156 73.382812 36.660156 C 73.199219 36.285156 72.824219 36.066406 72.4375 36.085938 Z M 6.960938 38.617188 C 6.414062 38.648438 5.984375 39.105469 6.011719 39.664062 C 6.03125 40.203125 6.472656 40.617188 7.011719 40.617188 L 7.050781 40.617188 C 7.601562 40.597656 8.03125 40.128906 8 39.578125 C 7.980469 39.019531 7.511719 38.597656 6.960938 38.617188 Z M 72.660156 39.976562 C 72.269531 40.011719 71.921875 40.28125 71.800781 40.667969 L 71.800781 40.679688 C 71.640625 41.199219 71.929688 41.757812 72.460938 41.929688 C 72.550781 41.960938 72.660156 41.96875 72.75 41.96875 C 73.179688 41.96875 73.570312 41.699219 73.710938 41.269531 C 73.871094 40.75 73.582031 40.191406 73.050781 40.019531 C 72.921875 39.976562 72.789062 39.964844 72.660156 39.976562 Z M 8.613281 42.257812 C 8.359375 42.230469 8.097656 42.300781 7.878906 42.472656 C 7.449219 42.820312 7.378906 43.449219 7.730469 43.882812 C 7.921875 44.121094 8.210938 44.25 8.507812 44.25 C 8.730469 44.25 8.949219 44.179688 9.128906 44.03125 C 9.5625 43.6875 9.628906 43.0625 9.289062 42.632812 C 9.113281 42.410156 8.871094 42.285156 8.613281 42.257812 Z M 25.457031 42.324219 C 26.226562 43.863281 27.039062 45.410156 27.933594 46.960938 C 27.933594 46.964844 27.933594 46.964844 27.933594 46.964844 C 28.671875 48.246094 29.4375 49.476562 30.210938 50.679688 C 27.570312 50.355469 25.078125 49.910156 22.789062 49.347656 C 23.5 47.097656 24.394531 44.742188 25.457031 42.324219 Z M 54.445312 42.324219 C 55.511719 44.75 56.398438 47.109375 57.113281 49.363281 C 54.808594 49.925781 52.320312 50.378906 49.664062 50.703125 C 50.441406 49.496094 51.210938 48.265625 51.953125 46.984375 C 51.976562 46.941406 51.992188 46.914062 52.011719 46.875 C 52.890625 45.351562 53.6875 43.835938 54.449219 42.324219 Z M 70.582031 43.265625 C 70.328125 43.257812 70.070312 43.347656 69.871094 43.539062 C 69.46875 43.917969 69.460938 44.5625 69.832031 44.960938 C 70.03125 45.160156 70.289062 45.257812 70.5625 45.257812 C 70.8125 45.257812 71.058594 45.171875 71.25 44.988281 C 71.648438 44.609375 71.660156 43.96875 71.28125 43.570312 C 71.089844 43.375 70.835938 43.273438 70.582031 43.265625 Z M 11.296875 44.90625 C 11.046875 44.953125 10.816406 45.101562 10.660156 45.332031 C 10.351562 45.789062 10.480469 46.410156 10.941406 46.71875 C 11.109375 46.832031 11.300781 46.890625 11.492188 46.890625 C 11.820312 46.890625 12.128906 46.730469 12.320312 46.4375 C 12.628906 45.980469 12.511719 45.359375 12.050781 45.058594 C 11.820312 44.90625 11.550781 44.859375 11.300781 44.90625 Z M 67.210938 45.621094 C 67.078125 45.640625 66.949219 45.679688 66.832031 45.75 C 66.359375 46.019531 66.191406 46.640625 66.46875 47.109375 C 66.652344 47.4375 66.988281 47.609375 67.332031 47.609375 C 67.5 47.609375 67.679688 47.570312 67.832031 47.480469 C 68.308594 47.199219 68.480469 46.589844 68.199219 46.117188 C 67.996094 45.757812 67.597656 45.574219 67.207031 45.621094 Z M 34.265625 53.070312 C 36.132812 53.199219 38.039062 53.28125 40 53.28125 C 41.921875 53.28125 43.789062 53.203125 45.621094 53.082031 C 43.761719 55.671875 41.851562 58.003906 39.941406 60.039062 C 38.039062 58.003906 36.125 55.660156 34.265625 53.070312 Z M 19.96875 56.949219 C 19.421875 56.890625 18.917969 57.289062 18.859375 57.839844 C 18.808594 58.390625 19.199219 58.878906 19.75 58.9375 C 19.789062 58.9375 19.820312 58.949219 19.859375 58.949219 C 20.359375 58.949219 20.800781 58.570312 20.847656 58.050781 C 20.910156 57.5 20.519531 57.007812 19.96875 56.949219 Z M 60.117188 58.429688 C 59.570312 58.460938 59.148438 58.929688 59.179688 59.480469 C 59.210938 60.011719 59.648438 60.417969 60.179688 60.417969 L 60.238281 60.417969 C 60.789062 60.390625 61.210938 59.917969 61.179688 59.359375 C 61.148438 58.808594 60.667969 58.390625 60.117188 58.429688 Z M 19.667969 60.9375 C 19.109375 60.96875 18.691406 61.441406 18.71875 61.988281 C 18.742188 62.519531 19.191406 62.9375 19.71875 62.9375 L 19.769531 62.9375 C 20.320312 62.910156 20.742188 62.441406 20.710938 61.890625 C 20.691406 61.339844 20.21875 60.910156 19.671875 60.9375 Z M 60.210938 62.417969 C 59.660156 62.351562 59.148438 62.738281 59.082031 63.28125 C 59.011719 63.828125 59.390625 64.332031 59.941406 64.410156 C 59.980469 64.410156 60.03125 64.421875 60.070312 64.421875 C 60.558594 64.421875 61 64.050781 61.0625 63.550781 C 61.140625 63 60.75 62.5 60.210938 62.421875 Z M 20.484375 64.863281 C 20.351562 64.855469 20.21875 64.871094 20.089844 64.921875 C 19.570312 65.101562 19.300781 65.679688 19.480469 66.199219 C 19.628906 66.609375 20.011719 66.859375 20.417969 66.859375 C 20.53125 66.859375 20.648438 66.839844 20.757812 66.800781 C 21.28125 66.621094 21.550781 66.039062 21.359375 65.53125 C 21.222656 65.132812 20.871094 64.882812 20.480469 64.863281 Z M 33.984375 65.839844 C 33.730469 65.792969 33.460938 65.84375 33.230469 66 C 32.78125 66.320312 32.671875 66.941406 32.980469 67.390625 C 33.179688 67.671875 33.492188 67.820312 33.800781 67.820312 C 34 67.820312 34.199219 67.769531 34.382812 67.652344 C 34.832031 67.332031 34.941406 66.710938 34.632812 66.25 C 34.472656 66.023438 34.234375 65.886719 33.984375 65.839844 Z M 59.011719 66.21875 C 58.625 66.171875 58.230469 66.351562 58.019531 66.710938 C 57.75 67.191406 57.910156 67.800781 58.390625 68.082031 C 58.550781 68.171875 58.71875 68.210938 58.890625 68.210938 C 59.242188 68.210938 59.570312 68.03125 59.757812 67.710938 C 60.03125 67.230469 59.871094 66.621094 59.390625 66.347656 C 59.269531 66.28125 59.144531 66.238281 59.011719 66.21875 Z M 48.371094 67.210938 C 47.984375 67.167969 47.59375 67.359375 47.390625 67.722656 C 47.128906 68.199219 47.300781 68.808594 47.777344 69.082031 C 47.9375 69.160156 48.097656 69.199219 48.269531 69.199219 C 48.621094 69.199219 48.960938 69.019531 49.140625 68.691406 C 49.410156 68.210938 49.238281 67.601562 48.75 67.332031 C 48.628906 67.261719 48.5 67.222656 48.371094 67.210938 Z M 30.316406 67.832031 C 30.1875 67.835938 30.054688 67.863281 29.929688 67.917969 C 29.429688 68.148438 29.210938 68.75 29.4375 69.25 C 29.609375 69.621094 29.96875 69.832031 30.347656 69.832031 C 30.488281 69.832031 30.628906 69.800781 30.769531 69.742188 C 31.269531 69.511719 31.488281 68.910156 31.261719 68.410156 C 31.085938 68.035156 30.707031 67.820312 30.316406 67.832031 Z M 22.535156 68.074219 C 22.28125 68.121094 22.046875 68.265625 21.890625 68.488281 C 21.582031 68.941406 21.691406 69.570312 22.152344 69.878906 C 22.320312 70 22.519531 70.058594 22.710938 70.058594 C 23.03125 70.058594 23.339844 69.910156 23.539062 69.617188 C 23.847656 69.167969 23.730469 68.550781 23.28125 68.230469 C 23.054688 68.074219 22.785156 68.027344 22.535156 68.074219 Z M 55.988281 68.730469 C 55.855469 68.71875 55.722656 68.734375 55.589844 68.78125 C 55.070312 68.949219 54.777344 69.507812 54.949219 70.039062 C 55.089844 70.460938 55.480469 70.730469 55.902344 70.730469 C 56 70.730469 56.109375 70.710938 56.210938 70.679688 C 56.742188 70.507812 57.019531 69.941406 56.851562 69.417969 C 56.722656 69.023438 56.375 68.761719 55.988281 68.730469 Z M 51.800781 68.734375 C 51.414062 68.796875 51.085938 69.082031 50.988281 69.480469 C 50.851562 70.019531 51.179688 70.558594 51.710938 70.699219 L 51.710938 70.6875 C 51.789062 70.71875 51.882812 70.730469 51.960938 70.730469 C 52.402344 70.730469 52.808594 70.421875 52.929688 69.96875 C 53.058594 69.429688 52.738281 68.890625 52.199219 68.75 C 52.0625 68.71875 51.929688 68.714844 51.800781 68.734375 Z M 26.4375 68.949219 C 25.890625 69 25.480469 69.480469 25.527344 70.03125 C 25.578125 70.550781 26.019531 70.941406 26.527344 70.941406 L 26.617188 70.941406 C 27.167969 70.890625 27.578125 70.398438 27.519531 69.851562 C 27.480469 69.300781 26.988281 68.898438 26.4375 68.949219 Z M 26.4375 68.949219 "/>
</g>
</svg>
